<svg width="24" height="25" viewBox="0 0 24 25" fill="none" xmlns="http://www.w3.org/2000/svg">
<g id="gala:search">
<g id="galaSearch0">
<path id="galaSearch1" d="M8.35073 14.1154L1.95947 20.5067" stroke="#1E1E1E" stroke-width="1.37228"/>
<path id="galaSearch2" d="M10.4318 16.1966L4.04059 22.5878" stroke="#1E1E1E" stroke-width="1.37228"/>
<path id="galaSearch3" d="M4.04059 22.5878C3.76462 22.8638 3.39032 23.0188 3.00003 23.0188C2.60975 23.0188 2.23545 22.8638 1.95947 22.5878" stroke="#1E1E1E" stroke-width="1.37228" stroke-linecap="round" stroke-linejoin="round"/>
<path id="galaSearch4" d="M1.95946 20.5067C1.68348 20.7827 1.52844 21.157 1.52844 21.5472C1.52844 21.9375 1.68348 22.3118 1.95946 22.5878" stroke="#1E1E1E" stroke-width="1.37228" stroke-linecap="round" stroke-linejoin="round"/>
<path id="galaSearch5" d="M22.5615 8.60786C22.5615 9.47749 22.3902 10.3386 22.0574 11.142C21.7246 11.9455 21.2368 12.6755 20.6219 13.2904C20.007 13.9053 19.277 14.3931 18.4736 14.7259C17.6701 15.0587 16.809 15.2299 15.9394 15.2299C15.0698 15.2299 14.2087 15.0587 13.4052 14.7259C12.6018 14.3931 11.8718 13.9053 11.2569 13.2904C10.642 12.6755 10.1542 11.9455 9.8214 11.142C9.48861 10.3386 9.31732 9.47749 9.31732 8.60786C9.31732 6.85158 10.015 5.16722 11.2569 3.92534C12.4988 2.68346 14.1831 1.98578 15.9394 1.98578C16.809 1.98578 17.6701 2.15706 18.4736 2.48985C19.277 2.82265 20.007 3.31042 20.6219 3.92534C21.2368 4.54026 21.7246 5.27027 22.0574 6.0737C22.3902 6.87713 22.5615 7.73824 22.5615 8.60786Z" stroke="#1E1E1E" stroke-width="1.37228" stroke-linecap="round" stroke-linejoin="round"/>
<path id="galaSearch6" d="M8.35071 14.1154L10.4318 16.1965" stroke="#1E1E1E" stroke-width="1.37228" stroke-linecap="round" stroke-linejoin="round"/>
<path id="galaSearch7" d="M9.3913 15.156L11.2569 13.2904" stroke="#1E1E1E" stroke-width="1.37228" stroke-linecap="round" stroke-linejoin="round"/>
<path id="galaSearch8" d="M6.57434 15.8918L8.65546 17.9729" stroke="#1E1E1E" stroke-width="1.37228" stroke-linecap="round" stroke-linejoin="round"/>
<path id="galaSearch9" d="M19.6183 8.60785C19.6183 9.58356 19.2307 10.5193 18.5408 11.2092C17.8509 11.8992 16.9151 12.2868 15.9394 12.2868" stroke="#1E1E1E" stroke-width="1.37228" stroke-linecap="round" stroke-linejoin="round"/>
</g>
</g>
</svg>
